<svg xmlns="http://www.w3.org/2000/svg" aria-hidden="true" style="width:0;height:0;position:absolute;overflow:hidden"><defs><symbol id="icon-smoll-arrow" viewBox="0 0 56 32"><path d="M4.852 3.404c-.236.076-.652.296-.932.492C2.464 4.912 1.948 6.772 2.668 8.42c.24.552.792 1.124 8.944 9.296 4.78 4.792 9.024 8.984 9.436 9.316 2.052 1.656 4.324 2.46 6.952 2.46 2.488 0 4.652-.72 6.672-2.224.308-.228 4.56-4.408 9.448-9.292 8.376-8.368 8.9-8.912 9.176-9.5.768-1.656.268-3.544-1.216-4.58-.696-.488-1.328-.656-2.272-.612-1.472.072-.736-.572-10.656 9.316-4.876 4.864-8.992 8.928-9.148 9.032-.46.312-1.388.58-2.004.58s-1.544-.268-2.004-.58c-.156-.104-4.272-4.168-9.148-9.032C6.856 2.64 7.664 3.34 6.112 3.296c-.536-.016-.992.024-1.26.108z"/></symbol><symbol id="icon-menu" viewBox="0 0 48 32"><path d="M2.36.078c-.65.168-1.084.554-1.236 1.1-.108.388-.108 1.256 0 1.644.106.38.49.824.868 1.002.268.126 1.734.138 21.848.156 24.138.024 22.116.074 22.676-.546.328-.362.444-.736.444-1.434 0-.696-.116-1.072-.442-1.432-.56-.62 1.456-.568-22.508-.56C12.234.012 2.492.044 2.36.078zM2.222 9.44c-.782.234-1.182.86-1.182 1.844 0 .994.288 1.558.952 1.866l.368.17h16.92c15.988 0 16.94-.008 17.286-.142.734-.282 1.058-.852 1.062-1.862.006-1.032-.392-1.646-1.218-1.874-.356-.1-33.862-.1-34.188-.002zm.294 9.278c-1.024.152-1.476.764-1.476 1.998 0 .822.25 1.348.788 1.666l.372.218h43.6l.372-.218c.538-.318.788-.844.788-1.666 0-.994-.288-1.558-.952-1.866l-.368-.17-21.36-.01c-11.748-.006-21.542.016-21.764.048zm-.156 9.36c-.652.168-1.084.554-1.236 1.1-.108.388-.108 1.256 0 1.644.106.38.49.824.868 1.002.268.126 1.446.136 17.328.136h17.04l.386-.19c.228-.112.464-.31.582-.488.414-.624.414-1.94 0-2.564a1.606 1.606 0 0 0-.582-.488l-.386-.19-16.88-.012c-9.284-.006-16.988.016-17.12.05z"/></symbol><symbol id="icon-cross" viewBox="0 0 32 32"><path d="M2.901.844c-.866.324-1.799 1.28-2.076 2.132-.149.46-.092 1.028.16 1.543.197.405.311.524 5.728 5.948l5.525 5.532-5.525 5.532c-5.454 5.461-5.529 5.54-5.733 5.957-.197.407-.206.446-.206.96 0 .501.012.56.176.887a4.05 4.05 0 0 0 1.714 1.714c.327.164.386.176.887.176.514 0 .553-.009.96-.206.418-.204.496-.279 5.957-5.733L16 19.761l5.532 5.525c5.461 5.454 5.54 5.529 5.957 5.733.407.197.446.206.96.206.501 0 .56-.012.887-.176a4.145 4.145 0 0 0 1.273-1.035c.146-.18.343-.485.441-.679.164-.327.176-.386.176-.887 0-.514-.009-.553-.206-.96-.204-.418-.279-.496-5.733-5.957l-5.525-5.532 5.525-5.532c5.454-5.461 5.529-5.54 5.733-5.957.197-.407.206-.446.206-.96 0-.501-.012-.56-.176-.887A4.05 4.05 0 0 0 29.336.949c-.327-.164-.386-.176-.887-.176-.514 0-.553.009-.96.206-.418.204-.496.279-5.957 5.733L16 12.237l-5.532-5.525C5.03 1.283 4.927 1.181 4.516.982c-.37-.18-.473-.206-.88-.222-.356-.012-.526.007-.734.084z"/></symbol><symbol id="icon-lock" viewBox="0 0 32 32"><path d="M14.533.799a9.11 9.11 0 0 0-1.68.439c-2.751.996-4.931 3.401-5.657 6.244-.244.957-.271 1.261-.3 3.511l-.029 2.167-.519.031c-1.193.073-2.155.377-3.032.961-1.163.775-2.036 1.977-2.349 3.239C.73 18.344.72 18.53.72 22.215c0 3.688.015 3.979.245 4.861.483 1.848 2.109 3.473 3.968 3.963.993.263 1.209.268 11.067.268s10.073-.005 11.067-.268c1.861-.491 3.48-2.108 3.972-3.971.24-.909.277-1.708.251-5.252-.025-3.351-.036-3.544-.256-4.425-.377-1.512-1.509-2.873-3.02-3.629-.648-.324-1.799-.585-2.58-.587h-.3l-.029-2.173c-.029-2.257-.056-2.561-.3-3.519-.809-3.165-3.376-5.724-6.537-6.516C17.107.678 15.609.61 14.535.8zm2.588 2.644c2.001.324 3.861 1.749 4.719 3.616.516 1.124.611 1.773.612 4.208l.001 1.853H9.546l.001-1.853c0-1.313.023-2.009.076-2.388a6.43 6.43 0 0 1 3.536-4.875c1.249-.615 2.521-.795 3.961-.561zm8.412 12.398c1.023.105 1.56.337 2.156.932.396.396.672.879.804 1.408.235.947.251 6.992.02 8.019-.253 1.127-1.193 2.065-2.317 2.312-.704.156-3.017.189-11.369.167-7.216-.019-8.248-.032-8.7-.108-.804-.135-1.299-.377-1.809-.888-.536-.536-.788-1.084-.909-1.976-.095-.696-.096-6.212-.003-6.933.121-.929.36-1.457.904-1.999.585-.581 1.153-.833 2.103-.933.609-.064 18.497-.064 19.121 0z"/></symbol><symbol id="icon-email" viewBox="0 0 38 32"><path d="M6.467 1.076c-1.167.125-1.964.364-2.756.822-1.613.934-2.71 2.49-3.015 4.279-.038.225-.099.56-.135.743-.086.436-.077 16.89.009 17.913.102 1.19.276 1.889.665 2.666.767 1.529 2.289 2.8 3.827 3.193 1.149.294.815.287 13.849.287 13.059 0 12.707.007 13.855-.291 1.555-.406 3.053-1.657 3.821-3.188.388-.777.563-1.476.665-2.666.086-1.023.095-17.476.009-17.913a34.252 34.252 0 0 1-.135-.743c-.327-1.92-1.575-3.572-3.377-4.47-.543-.271-.908-.387-1.727-.553-.493-.099-1.492-.109-12.794-.119-6.743-.007-12.484.012-12.758.041zm25.379 3.003c.64.182.998.396 1.503.897.449.447.842 1.143.915 1.619l.039.26-6.988 4.89c-3.843 2.689-7.2 5.011-7.46 5.161-.441.252-.503.269-.945.269s-.505-.017-.945-.269c-.26-.15-3.615-2.47-7.453-5.156-5.283-3.697-6.98-4.916-6.98-5.011 0-.244.263-.9.503-1.254.608-.896 1.425-1.376 2.573-1.513.231-.028 5.895-.045 12.586-.041l12.164.009.489.138zm-24.199 9.22c3.9 2.724 4.081 2.861 3.971 2.963-.167.157-7.972 7.188-8.103 7.3-.105.089-.111-.23-.111-6.573 0-5.325.016-6.656.079-6.607.044.033 1.917 1.345 4.164 2.916zM34.4 20.297l-.017 3.351-4.106-3.709c-2.259-2.039-4.109-3.737-4.113-3.772-.003-.035 1.844-1.359 4.108-2.941l4.112-2.879.017 3.299a818.93 818.93 0 0 1 0 6.65zm-19.18-1.704c1.3.9 1.958 1.239 2.703 1.392.705.147 1.188.151 1.878.022.858-.161 1.468-.492 3.44-1.857.358-.247.403-.263.505-.176.724.62 9.786 8.838 9.786 8.877 0 .083-.607.605-.915.785-.157.092-.518.228-.803.305l-.519.138H6.524l-.519-.138c-.607-.163-.976-.365-1.425-.781l-.324-.301.221-.22c.403-.403 9.661-8.739 9.703-8.739.023 0 .492.311 1.041.692z"/></symbol><symbol id="icon-user" viewBox="0 0 23 32"><path d="M10.631 1.467c-2.574.29-4.889 1.744-6.24 3.922a8.446 8.446 0 0 0-.427 8.151 8.418 8.418 0 0 0 4.892 4.309c1.804.601 3.593.601 5.397 0a8.422 8.422 0 0 0 4.892-4.309 8.44 8.44 0 0 0-.427-8.151c-1.228-1.98-3.317-3.408-5.6-3.826-.736-.133-1.781-.174-2.489-.096zm-.172 18.298c-2.722.26-5.408 1.609-7.23 3.632a11.276 11.276 0 0 0-2.22 3.643c-.425 1.141-.7 2.548-.7 3.586v.343h22.496v-.343c0-1.038-.276-2.444-.7-3.586a11.166 11.166 0 0 0-5.502-6.119 11.027 11.027 0 0 0-4.025-1.161 16.257 16.257 0 0 0-2.117.005z"/></symbol><symbol id="icon-logo" viewBox="0 0 32 32"><path d="M2.228 2.2c1.381 1.381 2.216 2.177 2.24 2.139s.931.847 2.425 2.367L9.28 9.135v13.479l13.413.001 2.435 2.44c1.339 1.341 3.432 3.448 4.653 4.681L32 31.977V0H.027l2.201 2.2zM22.88 15.813c0 3.74-.007 6.8-.013 6.8-.008 0-3.073-3.06-6.813-6.8l-6.8-6.8h13.627v6.8z"/></symbol><symbol id="icon-tiangle" viewBox="0 0 60 32"><path d="M3.416 3.276c.14.152 5.584 6.304 12.1 13.676S27.56 30.524 27.8 30.728c1.212 1.036 3.188 1.036 4.4 0 .24-.204 5.768-6.404 12.284-13.776s11.96-13.524 12.1-13.676L56.836 3H3.164l.252.276z"/></symbol><symbol id="icon-short-arrow" viewBox="0 0 55 32"><path d="M26.691.125c-.241.067-.582.227-.759.352S19.997 6.342 13.138 13.23C3.541 22.871.614 25.861.437 26.213c-.532 1.056-.535 2.121-.006 3.18a3.706 3.706 0 0 0 4.82 1.734c.329-.143 2.694-2.461 11.354-11.116L27.543 9.076l10.941 10.927C50.926 32.431 49.827 31.459 51.45 31.459c.809 0 .986-.029 1.452-.247.742-.349 1.484-1.079 1.844-1.818.276-.564.297-.669.297-1.574 0-1.684 1.257-.279-13.073-14.627C31.57 2.778 29.254.504 28.853.306c-.585-.288-1.507-.364-2.161-.18z"/></symbol></defs></svg>